<svg xmlns="http://www.w3.org/2000/svg" xmlns:xlink="http://www.w3.org/1999/xlink" width="500" zoomAndPan="magnify" viewBox="0 0 375 374.999991" height="500" preserveAspectRatio="xMidYMid meet" version="1.0"><defs><g/><clipPath id="69ddb1cfd9"><path d="M 7 70 L 373 70 L 373 221.953125 L 7 221.953125 Z M 7 70 " clip-rule="nonzero"/></clipPath><clipPath id="834530e13c"><path d="M 299.761719 184.90625 L 373 184.90625 L 373 258 L 299.761719 258 Z M 299.761719 184.90625 " clip-rule="nonzero"/></clipPath><clipPath id="dbefd814a0"><path d="M 7 181.621094 L 77.4375 181.621094 L 77.4375 258 L 7 258 Z M 7 181.621094 " clip-rule="nonzero"/></clipPath></defs><g fill="#fffafa" fill-opacity="1"><g transform="translate(68.942903, 260.657608)"><g><path d="M 17.269531 -34.535156 C 7.734375 -34.535156 0 -26.800781 0 -17.269531 C 0 -7.691406 7.78125 0 17.269531 0 C 22.101562 0 26.523438 -1.335938 29.65625 -3.820312 L 29.65625 -7.691406 C 25.371094 -1.84375 17.542969 1.613281 11.003906 -2.625 C 6.769531 -5.386719 3.867188 -10.914062 3.820312 -17.269531 C 3.820312 -18.972656 4.789062 -19.847656 6.492188 -19.894531 C 9.761719 -19.894531 13.398438 -16.253906 17.269531 -15.609375 C 20.996094 -15.058594 24.039062 -17.039062 22.976562 -21.183594 C 22.5625 -19.25 20.582031 -18.972656 18.925781 -19.15625 C 15.703125 -19.570312 12.664062 -21.964844 9.210938 -21.964844 C 7.320312 -22.011719 5.296875 -21.457031 3.960938 -19.707031 C 4.925781 -27.675781 10.5 -33.800781 17.269531 -33.800781 C 23.023438 -33.800781 27.628906 -29.195312 25.648438 -23.621094 C 28.226562 -23.578125 29.65625 -25.140625 29.65625 -27.214844 C 29.65625 -29.886719 26.800781 -32.003906 24.589844 -33.0625 C 22.332031 -34.074219 19.753906 -34.535156 17.269531 -34.535156 Z M 17.269531 -34.535156 "/></g></g></g><g fill="#fffafa" fill-opacity="1"><g transform="translate(102.188171, 260.657608)"><g><path d="M 17.269531 -34.535156 C 7.734375 -34.535156 0 -26.800781 0 -17.269531 C 0 -7.691406 7.78125 0 17.269531 0 C 22.101562 0 26.523438 -1.335938 29.65625 -3.820312 L 29.65625 -7.691406 C 25.371094 -1.84375 17.542969 1.613281 11.003906 -2.625 C 6.769531 -5.386719 3.820312 -10.914062 3.820312 -17.269531 C 3.820312 -26.386719 9.855469 -33.800781 17.269531 -33.800781 C 23.023438 -33.800781 27.628906 -29.195312 25.648438 -23.621094 C 28.226562 -23.578125 29.65625 -25.140625 29.65625 -27.214844 C 29.65625 -29.886719 26.800781 -32.003906 24.589844 -33.0625 C 22.332031 -34.074219 19.753906 -34.535156 17.269531 -34.535156 Z M 17.269531 -34.535156 "/></g></g></g><g fill="#fffafa" fill-opacity="1"><g transform="translate(135.985988, 260.657608)"><g><path d="M 3.820312 -19.707031 L 3.820312 -34.535156 L 0 -34.535156 L 0 0 L 3.820312 0 L 3.820312 -18.003906 C 3.820312 -19.386719 5.386719 -19.894531 6.539062 -19.894531 C 10.359375 -19.894531 13.308594 -15.75 17.914062 -15.886719 C 20.125 -15.933594 22.242188 -16.945312 23.023438 -19.25 L 23.023438 0 L 26.847656 0 L 26.847656 -34.535156 L 23.023438 -34.535156 L 23.023438 -21.457031 C 23.023438 -19.617188 21.457031 -18.878906 19.753906 -19.019531 C 16.253906 -19.339844 13.078125 -21.78125 9.625 -21.964844 C 7.460938 -22.101562 5.25 -21.414062 3.820312 -19.707031 Z M 3.820312 -19.707031 "/></g></g></g><g fill="#fffafa" fill-opacity="1"><g transform="translate(167.021032, 260.657608)"><g><path d="M 16.714844 -34.535156 C 7.507812 -34.535156 0 -26.800781 0 -17.269531 C 0 -7.734375 7.507812 0 16.714844 0 C 25.972656 0 33.429688 -7.734375 33.429688 -17.269531 C 33.429688 -26.800781 25.972656 -34.535156 16.714844 -34.535156 Z M 16.714844 -33.800781 C 23.851562 -33.800781 29.609375 -26.386719 29.609375 -17.269531 C 29.609375 -8.105469 23.851562 -0.691406 16.714844 -0.691406 C 9.625 -0.691406 3.820312 -8.105469 3.820312 -17.269531 C 3.820312 -26.386719 9.625 -33.800781 16.714844 -33.800781 Z M 16.714844 -33.800781 "/></g></g></g><g fill="#fffafa" fill-opacity="1"><g transform="translate(204.594635, 260.657608)"><g/></g></g><g fill="#fffafa" fill-opacity="1"><g transform="translate(214.678643, 260.657608)"><g><path d="M 17.269531 -34.535156 C 7.734375 -34.535156 0 -26.800781 0 -17.269531 C 0 -7.691406 7.78125 0 17.269531 0 C 22.101562 0 26.523438 -1.335938 29.65625 -3.820312 L 29.65625 -7.691406 C 25.371094 -1.84375 17.542969 1.613281 11.003906 -2.625 C 6.769531 -5.386719 3.867188 -10.914062 3.820312 -17.269531 C 3.820312 -18.972656 4.789062 -19.847656 6.492188 -19.894531 C 9.761719 -19.894531 13.398438 -16.253906 17.269531 -15.609375 C 20.996094 -15.058594 24.039062 -17.039062 22.976562 -21.183594 C 22.5625 -19.25 20.582031 -18.972656 18.925781 -19.15625 C 15.703125 -19.570312 12.664062 -21.964844 9.210938 -21.964844 C 7.320312 -22.011719 5.296875 -21.457031 3.960938 -19.707031 C 4.925781 -27.675781 10.5 -33.800781 17.269531 -33.800781 C 23.023438 -33.800781 27.628906 -29.195312 25.648438 -23.621094 C 28.226562 -23.578125 29.65625 -25.140625 29.65625 -27.214844 C 29.65625 -29.886719 26.800781 -32.003906 24.589844 -33.0625 C 22.332031 -34.074219 19.753906 -34.535156 17.269531 -34.535156 Z M 17.269531 -34.535156 "/></g></g></g><g fill="#fffafa" fill-opacity="1"><g transform="translate(247.923907, 260.657608)"><g><path d="M 0 -34.535156 L 0 0 L 3.820312 0 L 3.820312 -33.800781 L 14.042969 -33.800781 C 18.234375 -33.800781 22.242188 -30.4375 22.242188 -25.601562 C 22.242188 -20.953125 19.847656 -17.730469 14.78125 -17.453125 C 11.742188 -17.269531 9.394531 -17.5 6.859375 -15.289062 L 7.230469 -14.875 C 9.808594 -16.992188 12.15625 -16.578125 14.042969 -13.675781 C 16.808594 -9.347656 18.417969 -5.433594 20.769531 -1.152344 C 21.183594 -0.414062 21.6875 0 22.976562 0 L 26.523438 0 C 25.785156 -0.460938 24.726562 -2.027344 24.3125 -2.71875 C 22.148438 -6.214844 20.308594 -11.328125 17.5 -15.105469 C 17.039062 -15.792969 16.4375 -16.347656 15.65625 -16.714844 C 21.136719 -16.714844 26.109375 -19.570312 26.109375 -25.601562 C 26.109375 -31.175781 21.597656 -34.535156 16.667969 -34.535156 Z M 0 -34.535156 "/></g></g></g><g fill="#fffafa" fill-opacity="1"><g transform="translate(277.669647, 260.657608)"><g><path d="M 15.289062 -34.535156 L 11.050781 -34.535156 C 10.40625 -29.332031 8.289062 -25.878906 5.480469 -21.6875 C 3.175781 -18.234375 0.550781 -14.320312 0.09375 -10.085938 C -0.550781 -4.28125 3.175781 0 9.253906 0 C 16.761719 0 20.859375 -6.214844 20.859375 -12.664062 L 26.570312 0 L 30.761719 0 Z M 19.800781 -15.011719 C 21.78125 -10.636719 16.945312 -4.097656 12.386719 -3.316406 C 7.046875 -2.347656 3.453125 -5.570312 2.992188 -10.128906 C 2.53125 -14.503906 5.296875 -19.0625 7.367188 -22.746094 C 9.300781 -26.15625 10.914062 -29.472656 11.605469 -33.292969 Z M 19.800781 -15.011719 "/></g></g></g><g clip-path="url(#69ddb1cfd9)"><path fill="#fffafa" d="M 367.027344 234.972656 C 360.949219 225.917969 347.953125 219.753906 340.613281 213.359375 C 332.03125 211.429688 324.625 207.144531 317.191406 203.75 C 309.34375 200.167969 301.59375 197.242188 293.777344 194.144531 C 270.03125 184.734375 247.402344 174.089844 231.332031 157.519531 C 225.769531 151.785156 220.929688 144.730469 217.519531 138.304688 C 215.453125 134.40625 213.859375 127.441406 210.917969 125.695312 C 205.90625 122.722656 196.675781 125.394531 191.703125 123.292969 C 196.359375 106.683594 178.144531 100.714844 179.09375 87.265625 C 180.011719 74.273438 195.09375 74.5625 201.308594 81.863281 C 203.328125 84.234375 204.546875 90.65625 210.316406 88.46875 C 212.304688 85.066406 208.183594 81.3125 206.113281 78.859375 C 203.53125 75.800781 200.40625 72.726562 196.507812 71.65625 C 186.507812 68.914062 174.753906 74.402344 173.691406 86.066406 C 172.121094 103.234375 189.097656 104.140625 186.898438 123.292969 C 179.347656 125.257812 170.136719 122.871094 165.882812 125.695312 C 163.273438 127.429688 159.410156 138.269531 156.878906 142.507812 C 153.507812 148.148438 148.984375 154.351562 145.46875 158.117188 C 126.871094 178.054688 98.078125 185.9375 71.015625 197.746094 C 61.324219 201.976562 51.480469 207.019531 41.59375 212.160156 C 28.257812 219.085938 13.519531 225.820312 9.171875 239.179688 C 8.003906 242.761719 6.171875 251.664062 10.972656 255.988281 C 17.886719 257.871094 24.378906 248.082031 31.988281 246.382812 C 35.75 245.542969 42.640625 246.382812 48.800781 246.382812 L 69.816406 246.382812 C 136.097656 246.382812 227.992188 246.980469 308.1875 246.980469 C 321.914062 246.980469 337.492188 245.355469 347.816406 247.582031 C 355.347656 249.207031 360.378906 258.707031 369.429688 257.789062 C 374.917969 250.300781 370.84375 240.65625 367.027344 234.972656 Z M 205.511719 83.664062 C 202.117188 79.457031 199.273438 74.691406 192.300781 74.058594 C 198.839844 72.726562 203.324219 78.644531 205.511719 83.664062 Z M 186.898438 73.457031 C 188.148438 73.121094 191.488281 73.175781 191.703125 73.457031 C 192.292969 74.242188 188.644531 73.8125 188.097656 74.058594 C 185.917969 75.035156 179.8125 77.769531 177.890625 80.664062 C 179.910156 76.621094 184.507812 74.097656 186.898438 73.457031 Z M 176.691406 81.863281 C 179.109375 82.101562 176.242188 86.3125 176.089844 87.867188 C 179.402344 100.746094 191.164062 107.773438 189.898438 123.292969 C 186.941406 120.65625 188.710938 118.699219 188.097656 115.488281 C 185.804688 103.4375 171.863281 97.632812 176.691406 81.863281 Z M 210.316406 127.496094 C 217.589844 141.648438 223.703125 153.839844 234.933594 164.121094 C 252.660156 180.351562 283.257812 190.554688 308.1875 201.347656 C 319.679688 206.328125 327.875 210.757812 339.410156 215.160156 C 349.621094 222.957031 362.445312 228.148438 366.429688 242.179688 C 340.339844 203.816406 270.164062 199.371094 234.933594 168.925781 C 223.421875 158.976562 216.511719 146.980469 209.117188 131.699219 C 199.125 128.261719 183.183594 125.949219 172.492188 129.898438 C 165.90625 132.328125 165.898438 138.714844 161.683594 143.105469 C 159.25 142.203125 163.449219 138.269531 164.085938 136.503906 C 162.21875 120.078125 196.0625 124.699219 210.316406 127.496094 Z M 24.78125 222.964844 C 66.101562 194.519531 134.472656 187.980469 159.28125 141.90625 C 161.199219 144.433594 157.65625 147.109375 156.277344 149.710938 C 158.992188 149.226562 159.34375 146.375 160.480469 144.308594 C 149.40625 170.933594 122.679688 181.464844 93.832031 193.542969 C 80.585938 199.089844 67 205.042969 53.003906 211.554688 C 36.914062 219.039062 18.707031 226.625 12.171875 242.777344 C 11.863281 234.089844 18.839844 227.054688 24.78125 222.964844 Z M 21.179688 249.382812 C 20.839844 250.453125 19.511719 249.46875 20.578125 249.382812 C 54.699219 230.464844 87.976562 210.703125 122.652344 192.34375 C 89.390625 211.917969 55.457031 230.824219 21.179688 249.382812 Z M 188.101562 158.117188 C 193.710938 159.488281 195.871094 160.230469 203.539062 165.292969 C 209.417969 169.164062 214.160156 172.039062 219.320312 174.929688 C 256.675781 195.847656 296.492188 217.082031 332.804688 239.777344 C 301.113281 238.710938 261.171875 239.695312 227.808594 239.855469 L 208.421875 239.699219 C 162.6875 238.5 107.253906 238.929688 45.792969 238.578125 C 92.40625 210.929688 141.25 185.523438 188.097656 158.117188 Z M 123.253906 192.34375 C 128.222656 188.90625 133.496094 185.769531 139.464844 183.335938 C 137.433594 184.957031 128.386719 189.835938 123.253906 192.34375 Z M 140.667969 182.734375 C 145.304688 179.167969 150.722656 176.378906 156.277344 173.726562 C 151.621094 177.277344 146.113281 179.980469 140.667969 182.734375 Z M 40.394531 243.980469 C 43.203125 244.296875 52.214844 241.664062 55.40625 244.578125 C 51.570312 243.882812 42.613281 245.515625 40.394531 243.980469 Z M 56.003906 243.378906 C 63.980469 243.78125 67.519531 243.648438 74.019531 243.980469 C 69.574219 244.613281 59.457031 245.738281 56.003906 243.378906 Z M 75.21875 243.980469 L 78.820312 243.980469 C 123.828125 243.582031 171.933594 244.796875 218.121094 243.378906 C 171.871094 243.074219 107.699219 243.609375 40.394531 242.179688 C 44.84375 239.0625 57.53125 239.519531 67.414062 239.777344 C 96.0625 240.523438 137.109375 240.714844 176.671875 240.304688 L 177.03125 240.472656 L 249.449219 241.074219 L 249.34375 240.890625 C 269.839844 241.210938 289.9375 241.164062 307.585938 240.976562 C 317.851562 240.871094 328.824219 239.644531 338.207031 242.777344 C 293.371094 244.027344 258.273438 242.601562 218.722656 243.378906 C 262.265625 244.953125 308.40625 243.242188 341.210938 244.578125 C 242.34375 245.507812 160.703125 245.679688 75.21875 243.980469 Z M 367.628906 254.789062 C 318.550781 227.210938 269.992188 199.117188 221.125 171.328125 L 216.921875 171.328125 C 208.59375 165.242188 198.613281 160.8125 189.300781 155.714844 C 179.234375 160.660156 169.996094 166.433594 160.480469 171.929688 C 145.777344 175.410156 131.75 185.664062 119.050781 192.941406 C 83.253906 213.457031 46.667969 232.675781 10.972656 252.386719 C 16.625 226.101562 45.855469 214.828125 69.214844 204.953125 C 88.238281 196.910156 107.632812 189.90625 123.855469 181.535156 C 125.210938 182.929688 120.277344 183.132812 120.25 185.136719 C 135.308594 176.78125 151.394531 163.929688 161.679688 146.109375 C 164.421875 141.359375 168.421875 131.523438 173.089844 131.097656 C 179.914062 130.476562 183.074219 138.605469 189.902344 139.503906 C 189.195312 137.007812 186.058594 136.941406 184.496094 135.300781 C 188.011719 135 191.941406 139.460938 195.90625 140.707031 C 192.722656 136.484375 187.085938 134.710938 182.097656 132.300781 C 181.683594 133.914062 183.339844 133.460938 183.898438 134.101562 C 181.886719 135.085938 179.402344 131.40625 176.691406 131.097656 C 186.695312 128.09375 200.433594 128.769531 208.515625 132.898438 C 213.457031 143.226562 218.082031 152.546875 224.726562 160.519531 C 252.144531 193.421875 308.304688 197.3125 342.410156 223.566406 L 345.414062 223.566406 C 352.496094 230.292969 361.332031 235.265625 365.226562 245.179688 C 362.640625 244.765625 361.539062 242.863281 359.222656 242.179688 C 361.945312 246.316406 369.773438 247.683594 367.628906 254.789062 Z M 367.628906 254.789062 " fill-opacity="1" fill-rule="nonzero"/></g><g clip-path="url(#834530e13c)"><path fill="#fffafa" d="M 367.027344 234.972656 C 360.949219 225.917969 347.953125 219.753906 340.613281 213.359375 C 332.03125 211.429688 324.625 207.144531 317.191406 203.75 C 309.34375 200.167969 301.59375 197.242188 293.777344 194.144531 C 270.03125 184.734375 247.402344 174.089844 231.332031 157.519531 C 225.769531 151.785156 220.929688 144.730469 217.519531 138.304688 C 215.453125 134.40625 213.859375 127.441406 210.917969 125.695312 C 205.90625 122.722656 196.675781 125.394531 191.703125 123.292969 C 196.359375 106.683594 178.144531 100.714844 179.09375 87.265625 C 180.011719 74.273438 195.09375 74.5625 201.308594 81.863281 C 203.328125 84.234375 204.546875 90.65625 210.316406 88.46875 C 212.304688 85.066406 208.183594 81.3125 206.113281 78.859375 C 203.53125 75.800781 200.40625 72.726562 196.507812 71.65625 C 186.507812 68.914062 174.753906 74.402344 173.691406 86.066406 C 172.121094 103.234375 189.097656 104.140625 186.898438 123.292969 C 179.347656 125.257812 170.136719 122.871094 165.882812 125.695312 C 163.273438 127.429688 159.410156 138.269531 156.878906 142.507812 C 153.507812 148.148438 148.984375 154.351562 145.46875 158.117188 C 126.871094 178.054688 98.078125 185.9375 71.015625 197.746094 C 61.324219 201.976562 51.480469 207.019531 41.59375 212.160156 C 28.257812 219.085938 13.519531 225.820312 9.171875 239.179688 C 8.003906 242.761719 6.171875 251.664062 10.972656 255.988281 C 17.886719 257.871094 24.378906 248.082031 31.988281 246.382812 C 35.75 245.542969 42.640625 246.382812 48.800781 246.382812 L 69.816406 246.382812 C 136.097656 246.382812 227.992188 246.980469 308.1875 246.980469 C 321.914062 246.980469 337.492188 245.355469 347.816406 247.582031 C 355.347656 249.207031 360.378906 258.707031 369.429688 257.789062 C 374.917969 250.300781 370.84375 240.65625 367.027344 234.972656 Z M 205.511719 83.664062 C 202.117188 79.457031 199.273438 74.691406 192.300781 74.058594 C 198.839844 72.726562 203.324219 78.644531 205.511719 83.664062 Z M 186.898438 73.457031 C 188.148438 73.121094 191.488281 73.175781 191.703125 73.457031 C 192.292969 74.242188 188.644531 73.8125 188.097656 74.058594 C 185.917969 75.035156 179.8125 77.769531 177.890625 80.664062 C 179.910156 76.621094 184.507812 74.097656 186.898438 73.457031 Z M 176.691406 81.863281 C 179.109375 82.101562 176.242188 86.3125 176.089844 87.867188 C 179.402344 100.746094 191.164062 107.773438 189.898438 123.292969 C 186.941406 120.65625 188.710938 118.699219 188.097656 115.488281 C 185.804688 103.4375 171.863281 97.632812 176.691406 81.863281 Z M 210.316406 127.496094 C 217.589844 141.648438 223.703125 153.839844 234.933594 164.121094 C 252.660156 180.351562 283.257812 190.554688 308.1875 201.347656 C 319.679688 206.328125 327.875 210.757812 339.410156 215.160156 C 349.621094 222.957031 362.445312 228.148438 366.429688 242.179688 C 340.339844 203.816406 270.164062 199.371094 234.933594 168.925781 C 223.421875 158.976562 216.511719 146.980469 209.117188 131.699219 C 199.125 128.261719 183.183594 125.949219 172.492188 129.898438 C 165.90625 132.328125 165.898438 138.714844 161.683594 143.105469 C 159.25 142.203125 163.449219 138.269531 164.085938 136.503906 C 162.21875 120.078125 196.0625 124.699219 210.316406 127.496094 Z M 24.78125 222.964844 C 66.101562 194.519531 134.472656 187.980469 159.28125 141.90625 C 161.199219 144.433594 157.65625 147.109375 156.277344 149.710938 C 158.992188 149.226562 159.34375 146.375 160.480469 144.308594 C 149.40625 170.933594 122.679688 181.464844 93.832031 193.542969 C 80.585938 199.089844 67 205.042969 53.003906 211.554688 C 36.914062 219.039062 18.707031 226.625 12.171875 242.777344 C 11.863281 234.089844 18.839844 227.054688 24.78125 222.964844 Z M 21.179688 249.382812 C 20.839844 250.453125 19.511719 249.46875 20.578125 249.382812 C 54.699219 230.464844 87.976562 210.703125 122.652344 192.34375 C 89.390625 211.917969 55.457031 230.824219 21.179688 249.382812 Z M 188.101562 158.117188 C 193.710938 159.488281 195.871094 160.230469 203.539062 165.292969 C 209.417969 169.164062 214.160156 172.039062 219.320312 174.929688 C 256.675781 195.847656 296.492188 217.082031 332.804688 239.777344 C 301.113281 238.710938 261.171875 239.695312 227.808594 239.855469 L 208.421875 239.699219 C 162.6875 238.5 107.253906 238.929688 45.792969 238.578125 C 92.40625 210.929688 141.25 185.523438 188.097656 158.117188 Z M 123.253906 192.34375 C 128.222656 188.90625 133.496094 185.769531 139.464844 183.335938 C 137.433594 184.957031 128.386719 189.835938 123.253906 192.34375 Z M 140.667969 182.734375 C 145.304688 179.167969 150.722656 176.378906 156.277344 173.726562 C 151.621094 177.277344 146.113281 179.980469 140.667969 182.734375 Z M 40.394531 243.980469 C 43.203125 244.296875 52.214844 241.664062 55.40625 244.578125 C 51.570312 243.882812 42.613281 245.515625 40.394531 243.980469 Z M 56.003906 243.378906 C 63.980469 243.78125 67.519531 243.648438 74.019531 243.980469 C 69.574219 244.613281 59.457031 245.738281 56.003906 243.378906 Z M 75.21875 243.980469 L 78.820312 243.980469 C 123.828125 243.582031 171.933594 244.796875 218.121094 243.378906 C 171.871094 243.074219 107.699219 243.609375 40.394531 242.179688 C 44.84375 239.0625 57.53125 239.519531 67.414062 239.777344 C 96.0625 240.523438 137.109375 240.714844 176.671875 240.304688 L 177.03125 240.472656 L 249.449219 241.074219 L 249.34375 240.890625 C 269.839844 241.210938 289.9375 241.164062 307.585938 240.976562 C 317.851562 240.871094 328.824219 239.644531 338.207031 242.777344 C 293.371094 244.027344 258.273438 242.601562 218.722656 243.378906 C 262.265625 244.953125 308.40625 243.242188 341.210938 244.578125 C 242.34375 245.507812 160.703125 245.679688 75.21875 243.980469 Z M 367.628906 254.789062 C 318.550781 227.210938 269.992188 199.117188 221.125 171.328125 L 216.921875 171.328125 C 208.59375 165.242188 198.613281 160.8125 189.300781 155.714844 C 179.234375 160.660156 169.996094 166.433594 160.480469 171.929688 C 145.777344 175.410156 131.75 185.664062 119.050781 192.941406 C 83.253906 213.457031 46.667969 232.675781 10.972656 252.386719 C 16.625 226.101562 45.855469 214.828125 69.214844 204.953125 C 88.238281 196.910156 107.632812 189.90625 123.855469 181.535156 C 125.210938 182.929688 120.277344 183.132812 120.25 185.136719 C 135.308594 176.78125 151.394531 163.929688 161.679688 146.109375 C 164.421875 141.359375 168.421875 131.523438 173.089844 131.097656 C 179.914062 130.476562 183.074219 138.605469 189.902344 139.503906 C 189.195312 137.007812 186.058594 136.941406 184.496094 135.300781 C 188.011719 135 191.941406 139.460938 195.90625 140.707031 C 192.722656 136.484375 187.085938 134.710938 182.097656 132.300781 C 181.683594 133.914062 183.339844 133.460938 183.898438 134.101562 C 181.886719 135.085938 179.402344 131.40625 176.691406 131.097656 C 186.695312 128.09375 200.433594 128.769531 208.515625 132.898438 C 213.457031 143.226562 218.082031 152.546875 224.726562 160.519531 C 252.144531 193.421875 308.304688 197.3125 342.410156 223.566406 L 345.414062 223.566406 C 352.496094 230.292969 361.332031 235.265625 365.226562 245.179688 C 362.640625 244.765625 361.539062 242.863281 359.222656 242.179688 C 361.945312 246.316406 369.773438 247.683594 367.628906 254.789062 Z M 367.628906 254.789062 " fill-opacity="1" fill-rule="nonzero"/></g><g clip-path="url(#dbefd814a0)"><path fill="#fffafa" d="M 367.027344 234.972656 C 360.949219 225.917969 347.953125 219.753906 340.613281 213.359375 C 332.03125 211.429688 324.625 207.144531 317.191406 203.75 C 309.34375 200.167969 301.59375 197.242188 293.777344 194.144531 C 270.03125 184.734375 247.402344 174.089844 231.332031 157.519531 C 225.769531 151.785156 220.929688 144.730469 217.519531 138.304688 C 215.453125 134.40625 213.859375 127.441406 210.917969 125.695312 C 205.90625 122.722656 196.675781 125.394531 191.703125 123.292969 C 196.359375 106.683594 178.144531 100.714844 179.09375 87.265625 C 180.011719 74.273438 195.09375 74.5625 201.308594 81.863281 C 203.328125 84.234375 204.546875 90.65625 210.316406 88.46875 C 212.304688 85.066406 208.183594 81.3125 206.113281 78.859375 C 203.53125 75.800781 200.40625 72.726562 196.507812 71.65625 C 186.507812 68.914062 174.753906 74.402344 173.691406 86.066406 C 172.121094 103.234375 189.097656 104.140625 186.898438 123.292969 C 179.347656 125.257812 170.136719 122.871094 165.882812 125.695312 C 163.273438 127.429688 159.410156 138.269531 156.878906 142.507812 C 153.507812 148.148438 148.984375 154.351562 145.46875 158.117188 C 126.871094 178.054688 98.078125 185.9375 71.015625 197.746094 C 61.324219 201.976562 51.480469 207.019531 41.59375 212.160156 C 28.257812 219.085938 13.519531 225.820312 9.171875 239.179688 C 8.003906 242.761719 6.171875 251.664062 10.972656 255.988281 C 17.886719 257.871094 24.378906 248.082031 31.988281 246.382812 C 35.75 245.542969 42.640625 246.382812 48.800781 246.382812 L 69.816406 246.382812 C 136.097656 246.382812 227.992188 246.980469 308.1875 246.980469 C 321.914062 246.980469 337.492188 245.355469 347.816406 247.582031 C 355.347656 249.207031 360.378906 258.707031 369.429688 257.789062 C 374.917969 250.300781 370.84375 240.65625 367.027344 234.972656 Z M 205.511719 83.664062 C 202.117188 79.457031 199.273438 74.691406 192.300781 74.058594 C 198.839844 72.726562 203.324219 78.644531 205.511719 83.664062 Z M 186.898438 73.457031 C 188.148438 73.121094 191.488281 73.175781 191.703125 73.457031 C 192.292969 74.242188 188.644531 73.8125 188.097656 74.058594 C 185.917969 75.035156 179.8125 77.769531 177.890625 80.664062 C 179.910156 76.621094 184.507812 74.097656 186.898438 73.457031 Z M 176.691406 81.863281 C 179.109375 82.101562 176.242188 86.3125 176.089844 87.867188 C 179.402344 100.746094 191.164062 107.773438 189.898438 123.292969 C 186.941406 120.65625 188.710938 118.699219 188.097656 115.488281 C 185.804688 103.4375 171.863281 97.632812 176.691406 81.863281 Z M 210.316406 127.496094 C 217.589844 141.648438 223.703125 153.839844 234.933594 164.121094 C 252.660156 180.351562 283.257812 190.554688 308.1875 201.347656 C 319.679688 206.328125 327.875 210.757812 339.410156 215.160156 C 349.621094 222.957031 362.445312 228.148438 366.429688 242.179688 C 340.339844 203.816406 270.164062 199.371094 234.933594 168.925781 C 223.421875 158.976562 216.511719 146.980469 209.117188 131.699219 C 199.125 128.261719 183.183594 125.949219 172.492188 129.898438 C 165.90625 132.328125 165.898438 138.714844 161.683594 143.105469 C 159.25 142.203125 163.449219 138.269531 164.085938 136.503906 C 162.21875 120.078125 196.0625 124.699219 210.316406 127.496094 Z M 24.78125 222.964844 C 66.101562 194.519531 134.472656 187.980469 159.28125 141.90625 C 161.199219 144.433594 157.65625 147.109375 156.277344 149.710938 C 158.992188 149.226562 159.34375 146.375 160.480469 144.308594 C 149.40625 170.933594 122.679688 181.464844 93.832031 193.542969 C 80.585938 199.089844 67 205.042969 53.003906 211.554688 C 36.914062 219.039062 18.707031 226.625 12.171875 242.777344 C 11.863281 234.089844 18.839844 227.054688 24.78125 222.964844 Z M 21.179688 249.382812 C 20.839844 250.453125 19.511719 249.46875 20.578125 249.382812 C 54.699219 230.464844 87.976562 210.703125 122.652344 192.34375 C 89.390625 211.917969 55.457031 230.824219 21.179688 249.382812 Z M 188.101562 158.117188 C 193.710938 159.488281 195.871094 160.230469 203.539062 165.292969 C 209.417969 169.164062 214.160156 172.039062 219.320312 174.929688 C 256.675781 195.847656 296.492188 217.082031 332.804688 239.777344 C 301.113281 238.710938 261.171875 239.695312 227.808594 239.855469 L 208.421875 239.699219 C 162.6875 238.5 107.253906 238.929688 45.792969 238.578125 C 92.40625 210.929688 141.25 185.523438 188.097656 158.117188 Z M 123.253906 192.34375 C 128.222656 188.90625 133.496094 185.769531 139.464844 183.335938 C 137.433594 184.957031 128.386719 189.835938 123.253906 192.34375 Z M 140.667969 182.734375 C 145.304688 179.167969 150.722656 176.378906 156.277344 173.726562 C 151.621094 177.277344 146.113281 179.980469 140.667969 182.734375 Z M 40.394531 243.980469 C 43.203125 244.296875 52.214844 241.664062 55.40625 244.578125 C 51.570312 243.882812 42.613281 245.515625 40.394531 243.980469 Z M 56.003906 243.378906 C 63.980469 243.78125 67.519531 243.648438 74.019531 243.980469 C 69.574219 244.613281 59.457031 245.738281 56.003906 243.378906 Z M 75.21875 243.980469 L 78.820312 243.980469 C 123.828125 243.582031 171.933594 244.796875 218.121094 243.378906 C 171.871094 243.074219 107.699219 243.609375 40.394531 242.179688 C 44.84375 239.0625 57.53125 239.519531 67.414062 239.777344 C 96.0625 240.523438 137.109375 240.714844 176.671875 240.304688 L 177.03125 240.472656 L 249.449219 241.074219 L 249.34375 240.890625 C 269.839844 241.210938 289.9375 241.164062 307.585938 240.976562 C 317.851562 240.871094 328.824219 239.644531 338.207031 242.777344 C 293.371094 244.027344 258.273438 242.601562 218.722656 243.378906 C 262.265625 244.953125 308.40625 243.242188 341.210938 244.578125 C 242.34375 245.507812 160.703125 245.679688 75.21875 243.980469 Z M 367.628906 254.789062 C 318.550781 227.210938 269.992188 199.117188 221.125 171.328125 L 216.921875 171.328125 C 208.59375 165.242188 198.613281 160.8125 189.300781 155.714844 C 179.234375 160.660156 169.996094 166.433594 160.480469 171.929688 C 145.777344 175.410156 131.75 185.664062 119.050781 192.941406 C 83.253906 213.457031 46.667969 232.675781 10.972656 252.386719 C 16.625 226.101562 45.855469 214.828125 69.214844 204.953125 C 88.238281 196.910156 107.632812 189.90625 123.855469 181.535156 C 125.210938 182.929688 120.277344 183.132812 120.25 185.136719 C 135.308594 176.78125 151.394531 163.929688 161.679688 146.109375 C 164.421875 141.359375 168.421875 131.523438 173.089844 131.097656 C 179.914062 130.476562 183.074219 138.605469 189.902344 139.503906 C 189.195312 137.007812 186.058594 136.941406 184.496094 135.300781 C 188.011719 135 191.941406 139.460938 195.90625 140.707031 C 192.722656 136.484375 187.085938 134.710938 182.097656 132.300781 C 181.683594 133.914062 183.339844 133.460938 183.898438 134.101562 C 181.886719 135.085938 179.402344 131.40625 176.691406 131.097656 C 186.695312 128.09375 200.433594 128.769531 208.515625 132.898438 C 213.457031 143.226562 218.082031 152.546875 224.726562 160.519531 C 252.144531 193.421875 308.304688 197.3125 342.410156 223.566406 L 345.414062 223.566406 C 352.496094 230.292969 361.332031 235.265625 365.226562 245.179688 C 362.640625 244.765625 361.539062 242.863281 359.222656 242.179688 C 361.945312 246.316406 369.773438 247.683594 367.628906 254.789062 Z M 367.628906 254.789062 " fill-opacity="1" fill-rule="nonzero"/></g><path stroke-linecap="butt" transform="matrix(0, -0.75, 0.75, 0, 300.18183, 246.630452)" fill="none" stroke-linejoin="miter" d="M 0.00206074 0.502351 L 8.897895 0.502351 " stroke="#fffafa" stroke-width="1" stroke-opacity="1" stroke-miterlimit="4"/><path stroke-linecap="butt" transform="matrix(0, -0.75, 0.75, 0, 77.30302, 246.63098)" fill="none" stroke-linejoin="miter" d="M -0.00244359 0.502223 L 9.95589 0.502223 " stroke="#fffafa" stroke-width="1" stroke-opacity="1" stroke-miterlimit="4"/></svg>