<svg xmlns="http://www.w3.org/2000/svg" xmlns:xlink="http://www.w3.org/1999/xlink" width="500" zoomAndPan="magnify" viewBox="0 0 375 210.749996" height="281" preserveAspectRatio="xMidYMid meet" version="1.0"><defs><g/><clipPath id="b00051f0b9"><path d="M 1 2 L 372 2 L 372 155.046875 L 1 155.046875 Z M 1 2 " clip-rule="nonzero"/></clipPath><clipPath id="e1572d133d"><path d="M 298.367188 117.757812 L 372 117.757812 L 372 193 L 298.367188 193 Z M 298.367188 117.757812 " clip-rule="nonzero"/></clipPath><clipPath id="aa62634b5d"><path d="M 1 114.421875 L 72.285156 114.421875 L 72.285156 193 L 1 193 Z M 1 114.421875 " clip-rule="nonzero"/></clipPath></defs><g fill="#000000" fill-opacity="1"><g transform="translate(83.203615, 187.774422)"><g><path d="M 14.804688 -29.613281 C 6.632812 -29.613281 0 -22.980469 0 -14.804688 C 0 -6.59375 6.671875 0 14.804688 0 C 18.953125 0 22.742188 -1.144531 25.425781 -3.277344 L 25.425781 -6.59375 C 21.753906 -1.578125 15.042969 1.382812 9.4375 -2.25 C 5.804688 -4.621094 3.316406 -9.355469 3.277344 -14.804688 C 3.277344 -16.265625 4.105469 -17.015625 5.566406 -17.054688 C 8.371094 -17.054688 11.488281 -13.9375 14.804688 -13.382812 C 18.003906 -12.910156 20.609375 -14.609375 19.703125 -18.160156 C 19.347656 -16.503906 17.648438 -16.265625 16.226562 -16.425781 C 13.464844 -16.78125 10.859375 -18.832031 7.898438 -18.832031 C 6.277344 -18.871094 4.539062 -18.398438 3.394531 -16.898438 C 4.226562 -23.730469 9.003906 -28.980469 14.804688 -28.980469 C 19.742188 -28.980469 23.691406 -25.03125 21.992188 -20.253906 C 24.203125 -20.214844 25.425781 -21.558594 25.425781 -23.335938 C 25.425781 -25.625 22.980469 -27.441406 21.082031 -28.347656 C 19.148438 -29.21875 16.9375 -29.613281 14.804688 -29.613281 Z M 14.804688 -29.613281 "/></g></g></g><g fill="#000000" fill-opacity="1"><g transform="translate(111.706831, 187.774422)"><g><path d="M 14.804688 -29.613281 C 6.632812 -29.613281 0 -22.980469 0 -14.804688 C 0 -6.59375 6.671875 0 14.804688 0 C 18.953125 0 22.742188 -1.144531 25.425781 -3.277344 L 25.425781 -6.59375 C 21.753906 -1.578125 15.042969 1.382812 9.4375 -2.25 C 5.804688 -4.621094 3.277344 -9.355469 3.277344 -14.804688 C 3.277344 -22.625 8.449219 -28.980469 14.804688 -28.980469 C 19.742188 -28.980469 23.691406 -25.03125 21.992188 -20.253906 C 24.203125 -20.214844 25.425781 -21.558594 25.425781 -23.335938 C 25.425781 -25.625 22.980469 -27.441406 21.082031 -28.347656 C 19.148438 -29.21875 16.9375 -29.613281 14.804688 -29.613281 Z M 14.804688 -29.613281 "/></g></g></g><g fill="#000000" fill-opacity="1"><g transform="translate(140.683782, 187.774422)"><g><path d="M 3.277344 -16.898438 L 3.277344 -29.613281 L 0 -29.613281 L 0 0 L 3.277344 0 L 3.277344 -15.4375 C 3.277344 -16.621094 4.621094 -17.054688 5.605469 -17.054688 C 8.882812 -17.054688 11.410156 -13.503906 15.359375 -13.621094 C 17.253906 -13.660156 19.070312 -14.53125 19.742188 -16.503906 L 19.742188 0 L 23.019531 0 L 23.019531 -29.613281 L 19.742188 -29.613281 L 19.742188 -18.398438 C 19.742188 -16.820312 18.398438 -16.1875 16.9375 -16.304688 C 13.9375 -16.582031 11.214844 -18.675781 8.25 -18.832031 C 6.394531 -18.953125 4.5 -18.359375 3.277344 -16.898438 Z M 3.277344 -16.898438 "/></g></g></g><g fill="#000000" fill-opacity="1"><g transform="translate(167.292017, 187.774422)"><g><path d="M 14.332031 -29.613281 C 6.4375 -29.613281 0 -22.980469 0 -14.804688 C 0 -6.632812 6.4375 0 14.332031 0 C 22.269531 0 28.664062 -6.632812 28.664062 -14.804688 C 28.664062 -22.980469 22.269531 -29.613281 14.332031 -29.613281 Z M 14.332031 -28.980469 C 20.453125 -28.980469 25.386719 -22.625 25.386719 -14.804688 C 25.386719 -6.949219 20.453125 -0.59375 14.332031 -0.59375 C 8.25 -0.59375 3.277344 -6.949219 3.277344 -14.804688 C 3.277344 -22.625 8.25 -28.980469 14.332031 -28.980469 Z M 14.332031 -28.980469 "/></g></g></g><g fill="#000000" fill-opacity="1"><g transform="translate(199.506216, 187.774422)"><g/></g></g><g fill="#000000" fill-opacity="1"><g transform="translate(208.151753, 187.774422)"><g><path d="M 14.804688 -29.613281 C 6.632812 -29.613281 0 -22.980469 0 -14.804688 C 0 -6.59375 6.671875 0 14.804688 0 C 18.953125 0 22.742188 -1.144531 25.425781 -3.277344 L 25.425781 -6.59375 C 21.753906 -1.578125 15.042969 1.382812 9.4375 -2.25 C 5.804688 -4.621094 3.316406 -9.355469 3.277344 -14.804688 C 3.277344 -16.265625 4.105469 -17.015625 5.566406 -17.054688 C 8.371094 -17.054688 11.488281 -13.9375 14.804688 -13.382812 C 18.003906 -12.910156 20.609375 -14.609375 19.703125 -18.160156 C 19.347656 -16.503906 17.648438 -16.265625 16.226562 -16.425781 C 13.464844 -16.78125 10.859375 -18.832031 7.898438 -18.832031 C 6.277344 -18.871094 4.539062 -18.398438 3.394531 -16.898438 C 4.226562 -23.730469 9.003906 -28.980469 14.804688 -28.980469 C 19.742188 -28.980469 23.691406 -25.03125 21.992188 -20.253906 C 24.203125 -20.214844 25.425781 -21.558594 25.425781 -23.335938 C 25.425781 -25.625 22.980469 -27.441406 21.082031 -28.347656 C 19.148438 -29.21875 16.9375 -29.613281 14.804688 -29.613281 Z M 14.804688 -29.613281 "/></g></g></g><g fill="#000000" fill-opacity="1"><g transform="translate(236.654973, 187.774422)"><g><path d="M 0 -29.613281 L 0 0 L 3.277344 0 L 3.277344 -28.980469 L 12.042969 -28.980469 C 15.636719 -28.980469 19.070312 -26.097656 19.070312 -21.953125 C 19.070312 -17.964844 17.015625 -15.199219 12.675781 -14.964844 C 10.066406 -14.804688 8.054688 -15.003906 5.882812 -13.109375 L 6.199219 -12.753906 C 8.410156 -14.570312 10.421875 -14.214844 12.042969 -11.726562 C 14.410156 -8.015625 15.792969 -4.660156 17.808594 -0.988281 C 18.160156 -0.355469 18.597656 0 19.703125 0 L 22.742188 0 C 22.109375 -0.394531 21.203125 -1.738281 20.847656 -2.328125 C 18.992188 -5.332031 17.410156 -9.710938 15.003906 -12.949219 C 14.609375 -13.542969 14.09375 -14.015625 13.425781 -14.332031 C 18.121094 -14.332031 22.386719 -16.78125 22.386719 -21.953125 C 22.386719 -26.730469 18.515625 -29.613281 14.292969 -29.613281 Z M 0 -29.613281 "/></g></g></g><g fill="#000000" fill-opacity="1"><g transform="translate(262.157817, 187.774422)"><g><path d="M 13.109375 -29.613281 L 9.476562 -29.613281 C 8.921875 -25.152344 7.105469 -22.1875 4.699219 -18.597656 C 2.722656 -15.636719 0.472656 -12.277344 0.078125 -8.648438 C -0.472656 -3.671875 2.722656 0 7.9375 0 C 14.371094 0 17.886719 -5.332031 17.886719 -10.859375 L 22.78125 0 L 26.375 0 Z M 16.976562 -12.871094 C 18.675781 -9.121094 14.53125 -3.515625 10.621094 -2.84375 C 6.039062 -2.011719 2.960938 -4.777344 2.566406 -8.6875 C 2.171875 -12.4375 4.539062 -16.347656 6.316406 -19.503906 C 7.976562 -22.425781 9.355469 -25.269531 9.949219 -28.546875 Z M 16.976562 -12.871094 "/></g></g></g><g clip-path="url(#b00051f0b9)"><path fill="#000000" d="M 366.652344 169.082031 C 360.476562 159.859375 347.28125 153.585938 339.828125 147.070312 C 331.113281 145.105469 323.589844 140.742188 316.046875 137.285156 C 308.074219 133.636719 300.203125 130.65625 292.265625 127.5 C 268.152344 117.917969 245.171875 107.074219 228.855469 90.199219 C 223.207031 84.359375 218.292969 77.175781 214.828125 70.628906 C 212.730469 66.660156 211.113281 59.566406 208.121094 57.789062 C 203.035156 54.761719 193.664062 57.480469 188.613281 55.34375 C 193.339844 38.425781 174.84375 32.347656 175.808594 18.652344 C 176.738281 5.417969 192.054688 5.714844 198.367188 13.148438 C 200.417969 15.5625 201.65625 22.101562 207.511719 19.875 C 209.535156 16.410156 205.347656 12.589844 203.246094 10.089844 C 200.625 6.972656 197.449219 3.839844 193.488281 2.75 C 183.335938 -0.0390625 171.402344 5.550781 170.320312 17.429688 C 168.726562 34.914062 185.96875 35.835938 183.734375 55.34375 C 176.0625 57.34375 166.710938 54.910156 162.394531 57.789062 C 159.742188 59.554688 155.816406 70.597656 153.246094 74.910156 C 149.824219 80.65625 145.230469 86.972656 141.664062 90.808594 C 122.777344 111.113281 93.535156 119.140625 66.054688 131.171875 C 56.210938 135.480469 46.21875 140.617188 36.179688 145.847656 C 22.636719 152.902344 7.667969 159.761719 3.253906 173.367188 C 2.066406 177.015625 0.207031 186.082031 5.082031 190.488281 C 12.101562 192.402344 18.695312 182.433594 26.421875 180.703125 C 30.242188 179.847656 37.242188 180.703125 43.496094 180.703125 L 64.835938 180.703125 C 132.144531 180.703125 225.460938 181.3125 306.898438 181.3125 C 320.839844 181.3125 336.660156 179.65625 347.140625 181.925781 C 354.792969 183.582031 359.902344 193.253906 369.09375 192.320312 C 374.667969 184.695312 370.527344 174.871094 366.652344 169.082031 Z M 202.636719 14.980469 C 199.183594 10.695312 196.300781 5.84375 189.21875 5.199219 C 195.859375 3.84375 200.414062 9.867188 202.636719 14.980469 Z M 183.730469 4.585938 C 185 4.246094 188.394531 4.296875 188.609375 4.585938 C 189.210938 5.386719 185.503906 4.949219 184.953125 5.199219 C 182.738281 6.195312 176.535156 8.980469 174.585938 11.925781 C 176.636719 7.808594 181.304688 5.238281 183.730469 4.585938 Z M 173.367188 13.148438 C 175.824219 13.386719 172.910156 17.679688 172.757812 19.261719 C 176.121094 32.378906 188.0625 39.535156 186.78125 55.34375 C 183.777344 52.65625 185.574219 50.664062 184.953125 47.390625 C 182.621094 35.117188 168.464844 29.207031 173.367188 13.148438 Z M 207.511719 59.621094 C 214.902344 74.035156 221.109375 86.453125 232.511719 96.925781 C 250.515625 113.457031 281.585938 123.847656 306.902344 134.839844 C 318.570312 139.910156 326.894531 144.421875 338.605469 148.902344 C 348.976562 156.847656 362 162.132812 366.042969 176.421875 C 339.550781 137.351562 268.289062 132.824219 232.511719 101.816406 C 220.824219 91.683594 213.804688 79.46875 206.296875 63.902344 C 196.148438 60.402344 179.960938 58.046875 169.101562 62.070312 C 162.414062 64.546875 162.40625 71.046875 158.125 75.523438 C 155.65625 74.601562 159.921875 70.59375 160.566406 68.796875 C 158.671875 52.070312 193.039062 56.773438 207.511719 59.621094 Z M 19.105469 156.855469 C 61.066406 127.882812 130.492188 121.222656 155.6875 74.300781 C 157.636719 76.871094 154.035156 79.597656 152.636719 82.25 C 155.394531 81.753906 155.753906 78.851562 156.90625 76.746094 C 145.660156 103.863281 118.519531 114.585938 89.226562 126.890625 C 75.773438 132.539062 61.980469 138.601562 47.761719 145.234375 C 31.425781 152.855469 12.9375 160.582031 6.300781 177.03125 C 5.988281 168.183594 13.070312 161.019531 19.105469 156.855469 Z M 15.449219 183.761719 C 15.101562 184.847656 13.753906 183.847656 14.839844 183.761719 C 49.484375 164.492188 83.277344 144.363281 118.492188 125.667969 C 84.714844 145.605469 50.257812 164.859375 15.449219 183.761719 Z M 184.953125 90.808594 C 190.652344 92.203125 192.84375 92.964844 200.628906 98.117188 C 206.601562 102.0625 211.417969 104.988281 216.65625 107.929688 C 254.59375 129.234375 295.023438 150.859375 331.898438 173.976562 C 299.714844 172.890625 259.15625 173.894531 225.277344 174.054688 L 205.589844 173.894531 C 159.148438 172.675781 102.855469 173.113281 40.441406 172.753906 C 87.777344 144.597656 137.375 118.71875 184.949219 90.808594 Z M 119.101562 125.667969 C 124.148438 122.167969 129.5 118.972656 135.566406 116.492188 C 133.5 118.144531 124.316406 123.113281 119.101562 125.667969 Z M 136.785156 115.878906 C 141.496094 112.25 146.996094 109.410156 152.636719 106.707031 C 147.90625 110.324219 142.316406 113.074219 136.785156 115.878906 Z M 34.960938 178.253906 C 37.8125 178.582031 46.964844 175.898438 50.203125 178.867188 C 46.308594 178.15625 37.210938 179.820312 34.960938 178.253906 Z M 50.8125 177.644531 C 58.910156 178.054688 62.503906 177.917969 69.105469 178.253906 C 64.59375 178.898438 54.320312 180.046875 50.8125 177.644531 Z M 70.324219 178.253906 L 73.980469 178.253906 C 119.683594 177.851562 168.535156 179.089844 215.441406 177.644531 C 168.472656 177.335938 103.304688 177.878906 34.960938 176.421875 C 39.476562 173.246094 52.363281 173.714844 62.398438 173.976562 C 91.488281 174.738281 133.171875 174.929688 173.347656 174.515625 L 173.710938 174.6875 L 247.25 175.296875 L 247.144531 175.109375 C 267.960938 175.433594 288.367188 175.386719 306.289062 175.199219 C 316.710938 175.089844 327.859375 173.839844 337.386719 177.03125 C 291.855469 178.304688 256.214844 176.851562 216.046875 177.644531 C 260.269531 179.246094 307.121094 177.503906 340.433594 178.867188 C 240.039062 179.8125 157.132812 179.988281 70.320312 178.253906 Z M 367.261719 189.265625 C 317.425781 161.175781 268.113281 132.5625 218.488281 104.261719 L 214.21875 104.261719 C 205.765625 98.066406 195.628906 93.554688 186.171875 88.363281 C 175.949219 93.398438 166.570312 99.28125 156.90625 104.875 C 141.976562 108.421875 127.730469 118.863281 114.832031 126.277344 C 78.480469 147.171875 41.332031 166.742188 5.082031 186.820312 C 10.820312 160.046875 40.507812 148.566406 64.226562 138.507812 C 83.542969 130.320312 103.238281 123.1875 119.710938 114.660156 C 121.089844 116.082031 116.082031 116.289062 116.054688 118.328125 C 131.34375 109.820312 147.679688 96.730469 158.125 78.578125 C 160.910156 73.742188 164.972656 63.722656 169.710938 63.292969 C 176.640625 62.660156 179.851562 70.9375 186.78125 71.851562 C 186.066406 69.308594 182.878906 69.242188 181.292969 67.574219 C 184.863281 67.265625 188.855469 71.808594 192.878906 73.074219 C 189.648438 68.777344 183.925781 66.972656 178.855469 64.515625 C 178.433594 66.160156 180.117188 65.695312 180.683594 66.347656 C 178.644531 67.355469 176.121094 63.605469 173.367188 63.292969 C 183.527344 60.230469 197.480469 60.921875 205.683594 65.125 C 210.703125 75.644531 215.398438 85.132812 222.148438 93.257812 C 249.988281 126.765625 307.019531 130.726562 341.652344 157.464844 L 344.703125 157.464844 C 351.894531 164.316406 360.871094 169.378906 364.824219 179.476562 C 362.195312 179.054688 361.078125 177.117188 358.726562 176.421875 C 361.492188 180.636719 369.4375 182.027344 367.261719 189.265625 Z M 367.261719 189.265625 " fill-opacity="1" fill-rule="nonzero"/></g><g clip-path="url(#e1572d133d)"><path fill="#000000" d="M 366.625 169.414062 C 360.453125 160.191406 347.253906 153.914062 339.800781 147.402344 C 331.085938 145.433594 323.5625 141.070312 316.019531 137.613281 C 308.046875 133.964844 300.175781 130.984375 292.238281 127.832031 C 268.125 118.25 245.144531 107.40625 228.828125 90.527344 C 223.179688 84.6875 218.265625 77.503906 214.804688 70.960938 C 212.703125 66.988281 211.085938 59.898438 208.097656 58.117188 C 203.007812 55.089844 193.636719 57.8125 188.585938 55.671875 C 193.3125 38.757812 174.816406 32.675781 175.78125 18.980469 C 176.710938 5.746094 192.03125 6.042969 198.339844 13.476562 C 200.390625 15.894531 201.628906 22.429688 207.484375 20.203125 C 209.507812 16.742188 205.320312 12.917969 203.21875 10.421875 C 200.597656 7.304688 197.421875 4.171875 193.460938 3.082031 C 183.308594 0.289062 171.375 5.878906 170.292969 17.757812 C 168.699219 35.246094 185.941406 36.167969 183.707031 55.671875 C 176.035156 57.675781 166.683594 55.242188 162.367188 58.117188 C 159.714844 59.886719 155.789062 70.925781 153.21875 75.242188 C 149.796875 80.984375 145.203125 87.304688 141.636719 91.140625 C 122.75 111.445312 93.507812 119.472656 66.027344 131.5 C 56.183594 135.808594 46.191406 140.945312 36.152344 146.175781 C 22.609375 153.234375 7.644531 160.09375 3.226562 173.695312 C 2.039062 177.347656 0.179688 186.414062 5.054688 190.816406 C 12.074219 192.734375 18.667969 182.765625 26.394531 181.03125 C 30.214844 180.179688 37.214844 181.03125 43.46875 181.03125 L 64.808594 181.03125 C 132.117188 181.03125 225.433594 181.644531 306.871094 181.644531 C 320.8125 181.644531 336.632812 179.988281 347.113281 182.253906 C 354.765625 183.910156 359.875 193.585938 369.066406 192.648438 C 374.640625 185.027344 370.5 175.203125 366.625 169.414062 Z M 202.609375 15.3125 C 199.15625 11.023438 196.273438 6.171875 189.191406 5.527344 C 195.832031 4.171875 200.386719 10.199219 202.609375 15.3125 Z M 183.707031 4.917969 C 184.972656 4.574219 188.367188 4.628906 188.582031 4.917969 C 189.183594 5.714844 185.476562 5.28125 184.925781 5.527344 C 182.710938 6.523438 176.507812 9.308594 174.558594 12.253906 C 176.609375 8.136719 181.277344 5.570312 183.707031 4.917969 Z M 173.339844 13.476562 C 175.796875 13.71875 172.882812 18.011719 172.730469 19.59375 C 176.09375 32.707031 188.035156 39.863281 186.753906 55.671875 C 183.75 52.984375 185.546875 50.992188 184.925781 47.722656 C 182.59375 35.449219 168.4375 29.539062 173.339844 13.476562 Z M 207.484375 59.953125 C 214.875 74.367188 221.082031 86.785156 232.484375 97.253906 C 250.488281 113.785156 281.558594 124.175781 306.875 135.167969 C 318.546875 140.238281 326.867188 144.75 338.578125 149.234375 C 348.949219 157.175781 361.972656 162.464844 366.019531 176.753906 C 339.523438 137.683594 268.261719 133.152344 232.488281 102.148438 C 220.796875 92.015625 213.777344 79.796875 206.269531 64.234375 C 196.121094 60.734375 179.933594 58.375 169.074219 62.398438 C 162.386719 64.875 162.378906 71.375 158.097656 75.851562 C 155.628906 74.929688 159.894531 70.921875 160.539062 69.125 C 158.644531 52.398438 193.011719 57.101562 207.484375 59.953125 Z M 19.078125 157.183594 C 61.039062 128.210938 130.464844 121.554688 155.660156 74.628906 C 157.609375 77.203125 154.007812 79.925781 152.609375 82.578125 C 155.367188 82.085938 155.726562 79.179688 156.878906 77.074219 C 145.632812 104.191406 118.492188 114.917969 89.199219 127.21875 C 75.746094 132.871094 61.953125 138.929688 47.734375 145.5625 C 31.398438 153.1875 12.910156 160.910156 6.273438 177.363281 C 5.960938 168.515625 13.046875 161.347656 19.078125 157.183594 Z M 15.421875 184.089844 C 15.078125 185.179688 13.726562 184.179688 14.8125 184.089844 C 49.457031 164.824219 83.25 144.695312 118.464844 125.996094 C 84.6875 145.933594 50.230469 165.1875 15.421875 184.089844 Z M 184.925781 91.140625 C 190.625 92.535156 192.816406 93.292969 200.601562 98.449219 C 206.574219 102.390625 211.390625 105.320312 216.628906 108.261719 C 254.566406 129.566406 294.996094 151.191406 331.871094 174.304688 C 299.6875 173.21875 259.128906 174.222656 225.25 174.386719 L 205.5625 174.226562 C 159.121094 173.003906 102.828125 173.445312 40.414062 173.082031 C 87.75 144.929688 137.347656 119.050781 184.921875 91.140625 Z M 119.074219 125.996094 C 124.121094 122.496094 129.476562 119.304688 135.539062 116.824219 C 133.472656 118.472656 124.289062 123.441406 119.074219 125.996094 Z M 136.757812 116.210938 C 141.46875 112.578125 146.96875 109.738281 152.609375 107.039062 C 147.882812 110.652344 142.289062 113.402344 136.757812 116.210938 Z M 34.933594 178.585938 C 37.785156 178.910156 46.9375 176.230469 50.175781 179.195312 C 46.28125 178.488281 37.183594 180.148438 34.933594 178.585938 Z M 50.785156 177.976562 C 58.882812 178.382812 62.476562 178.246094 69.078125 178.585938 C 64.566406 179.230469 54.292969 180.375 50.785156 177.976562 Z M 70.296875 178.585938 L 73.953125 178.585938 C 119.65625 178.183594 168.507812 179.417969 215.414062 177.976562 C 168.445312 177.664062 103.277344 178.207031 34.933594 176.753906 C 39.449219 173.578125 52.335938 174.042969 62.371094 174.304688 C 91.460938 175.066406 133.144531 175.261719 173.320312 174.84375 L 173.683594 175.015625 L 247.222656 175.625 L 247.117188 175.441406 C 267.933594 175.765625 288.339844 175.71875 306.261719 175.527344 C 316.683594 175.417969 327.832031 174.171875 337.359375 177.363281 C 291.828125 178.632812 256.1875 177.179688 216.019531 177.972656 C 260.242188 179.578125 307.09375 177.835938 340.40625 179.195312 C 240.011719 180.140625 157.105469 180.316406 70.296875 178.585938 Z M 367.234375 189.59375 C 317.398438 161.507812 268.085938 132.894531 218.460938 104.59375 L 214.191406 104.59375 C 205.738281 98.398438 195.601562 93.882812 186.144531 88.695312 C 175.921875 93.726562 166.542969 99.609375 156.878906 105.203125 C 141.949219 108.75 127.703125 119.195312 114.808594 126.609375 C 78.453125 147.5 41.304688 167.074219 5.054688 187.148438 C 10.792969 160.378906 40.480469 148.894531 64.199219 138.839844 C 83.515625 130.648438 103.210938 123.515625 119.683594 114.988281 C 121.0625 116.410156 116.054688 116.617188 116.027344 118.65625 C 131.316406 110.148438 147.652344 97.058594 158.097656 78.910156 C 160.882812 74.074219 164.945312 64.054688 169.683594 63.621094 C 176.613281 62.988281 179.824219 71.265625 186.753906 72.183594 C 186.039062 69.640625 182.851562 69.574219 181.265625 67.902344 C 184.835938 67.59375 188.828125 72.136719 192.851562 73.40625 C 189.621094 69.105469 183.898438 67.300781 178.828125 64.84375 C 178.40625 66.488281 180.089844 66.027344 180.65625 66.679688 C 178.617188 67.683594 176.09375 63.9375 173.339844 63.621094 C 183.5 60.558594 197.453125 61.25 205.65625 65.457031 C 210.675781 75.972656 215.371094 85.464844 222.121094 93.585938 C 249.960938 127.097656 306.992188 131.058594 341.628906 157.796875 L 344.675781 157.796875 C 351.867188 164.648438 360.84375 169.710938 364.796875 179.808594 C 362.171875 179.386719 361.050781 177.449219 358.699219 176.753906 C 361.464844 180.96875 369.410156 182.359375 367.234375 189.59375 Z M 367.234375 189.59375 " fill-opacity="1" fill-rule="nonzero"/></g><g clip-path="url(#aa62634b5d)"><path fill="#000000" d="M 366.652344 169.40625 C 360.476562 160.179688 347.28125 153.90625 339.828125 147.390625 C 331.113281 145.425781 323.589844 141.0625 316.046875 137.605469 C 308.074219 133.957031 300.203125 130.976562 292.265625 127.820312 C 268.152344 118.238281 245.171875 107.394531 228.855469 90.519531 C 223.207031 84.679688 218.292969 77.496094 214.828125 70.949219 C 212.730469 66.980469 211.113281 59.886719 208.121094 58.109375 C 203.035156 55.082031 193.664062 57.804688 188.613281 55.664062 C 193.339844 38.75 174.84375 32.667969 175.808594 18.972656 C 176.738281 5.738281 192.054688 6.035156 198.367188 13.46875 C 200.417969 15.886719 201.65625 22.421875 207.511719 20.195312 C 209.535156 16.730469 205.347656 12.910156 203.246094 10.410156 C 200.625 7.292969 197.449219 4.160156 193.488281 3.074219 C 183.335938 0.28125 171.402344 5.871094 170.320312 17.75 C 168.726562 35.234375 185.96875 36.15625 183.734375 55.664062 C 176.0625 57.664062 166.710938 55.230469 162.394531 58.109375 C 159.742188 59.878906 155.816406 70.917969 153.246094 75.230469 C 149.824219 80.976562 145.230469 87.292969 141.664062 91.128906 C 122.777344 111.4375 93.535156 119.464844 66.054688 131.492188 C 56.210938 135.800781 46.21875 140.9375 36.179688 146.167969 C 22.636719 153.222656 7.667969 160.082031 3.253906 173.6875 C 2.066406 177.335938 0.207031 186.402344 5.082031 190.808594 C 12.101562 192.726562 18.695312 182.753906 26.421875 181.023438 C 30.242188 180.167969 37.242188 181.023438 43.496094 181.023438 L 64.835938 181.023438 C 132.144531 181.023438 225.460938 181.636719 306.898438 181.636719 C 320.839844 181.636719 336.660156 179.976562 347.140625 182.246094 C 354.792969 183.902344 359.902344 193.574219 369.09375 192.640625 C 374.667969 185.015625 370.527344 175.191406 366.652344 169.40625 Z M 202.636719 15.304688 C 199.183594 11.015625 196.300781 6.164062 189.21875 5.519531 C 195.859375 4.164062 200.414062 10.1875 202.636719 15.304688 Z M 183.730469 4.90625 C 185 4.566406 188.394531 4.621094 188.609375 4.90625 C 189.210938 5.707031 185.503906 5.269531 184.953125 5.519531 C 182.738281 6.515625 176.535156 9.300781 174.585938 12.246094 C 176.636719 8.128906 181.304688 5.558594 183.730469 4.90625 Z M 173.367188 13.46875 C 175.824219 13.710938 172.910156 18 172.757812 19.582031 C 176.121094 32.699219 188.0625 39.855469 186.78125 55.664062 C 183.777344 52.976562 185.574219 50.984375 184.953125 47.714844 C 182.621094 35.441406 168.464844 29.53125 173.367188 13.46875 Z M 207.511719 59.945312 C 214.902344 74.355469 221.109375 86.773438 232.511719 97.246094 C 250.515625 113.777344 281.585938 124.167969 306.902344 135.160156 C 318.570312 140.230469 326.894531 144.742188 338.605469 149.226562 C 348.976562 157.167969 362 162.453125 366.042969 176.742188 C 339.550781 137.671875 268.289062 133.144531 232.511719 102.136719 C 220.824219 92.007812 213.804688 79.789062 206.296875 64.222656 C 196.148438 60.722656 179.960938 58.367188 169.101562 62.390625 C 162.414062 64.867188 162.40625 71.367188 158.125 75.84375 C 155.65625 74.921875 159.921875 70.914062 160.566406 69.117188 C 158.671875 52.390625 193.039062 57.09375 207.511719 59.945312 Z M 19.105469 157.175781 C 61.066406 128.203125 130.492188 121.542969 155.6875 74.621094 C 157.636719 77.191406 154.035156 79.917969 152.636719 82.570312 C 155.394531 82.074219 155.753906 79.171875 156.90625 77.066406 C 145.660156 104.183594 118.519531 114.910156 89.226562 127.210938 C 75.773438 132.859375 61.980469 138.921875 47.761719 145.554688 C 31.425781 153.179688 12.9375 160.902344 6.300781 177.351562 C 5.988281 168.503906 13.070312 161.339844 19.105469 157.175781 Z M 15.449219 184.082031 C 15.101562 185.167969 13.753906 184.167969 14.839844 184.082031 C 49.484375 164.8125 83.277344 144.683594 118.492188 125.988281 C 84.714844 145.925781 50.257812 165.179688 15.449219 184.082031 Z M 184.953125 91.128906 C 190.652344 92.527344 192.84375 93.285156 200.628906 98.4375 C 206.601562 102.382812 211.417969 105.308594 216.65625 108.25 C 254.59375 129.558594 295.023438 151.179688 331.898438 174.296875 C 299.714844 173.210938 259.15625 174.214844 225.277344 174.375 L 205.589844 174.214844 C 159.148438 172.996094 102.855469 173.4375 40.441406 173.074219 C 87.777344 144.917969 137.375 119.042969 184.949219 91.128906 Z M 119.101562 125.988281 C 124.148438 122.488281 129.5 119.292969 135.566406 116.8125 C 133.5 118.464844 124.316406 123.433594 119.101562 125.988281 Z M 136.785156 116.203125 C 141.496094 112.570312 146.996094 109.730469 152.636719 107.027344 C 147.90625 110.644531 142.316406 113.394531 136.785156 116.203125 Z M 34.960938 178.574219 C 37.8125 178.902344 46.964844 176.21875 50.203125 179.1875 C 46.308594 178.476562 37.210938 180.140625 34.960938 178.574219 Z M 50.8125 177.964844 C 58.910156 178.375 62.503906 178.238281 69.105469 178.574219 C 64.59375 179.222656 54.320312 180.367188 50.8125 177.964844 Z M 70.324219 178.574219 L 73.980469 178.574219 C 119.683594 178.171875 168.535156 179.410156 215.441406 177.964844 C 168.472656 177.65625 103.304688 178.199219 34.960938 176.742188 C 39.476562 173.566406 52.363281 174.035156 62.398438 174.296875 C 91.488281 175.058594 133.171875 175.25 173.347656 174.835938 L 173.710938 175.007812 L 247.25 175.617188 L 247.144531 175.429688 C 267.960938 175.753906 288.367188 175.707031 306.289062 175.519531 C 316.710938 175.410156 327.859375 174.160156 337.386719 177.351562 C 291.855469 178.625 256.214844 177.171875 216.046875 177.964844 C 260.269531 179.570312 307.121094 177.824219 340.433594 179.1875 C 240.039062 180.132812 157.132812 180.308594 70.320312 178.574219 Z M 367.261719 189.585938 C 317.425781 161.496094 268.113281 132.882812 218.488281 104.582031 L 214.21875 104.582031 C 205.765625 98.386719 195.628906 93.875 186.171875 88.683594 C 175.949219 93.71875 166.570312 99.601562 156.90625 105.195312 C 141.976562 108.742188 127.730469 119.183594 114.832031 126.597656 C 78.480469 147.492188 41.332031 167.0625 5.082031 187.140625 C 10.820312 160.367188 40.507812 148.886719 64.226562 138.828125 C 83.542969 130.640625 103.238281 123.507812 119.710938 114.980469 C 121.089844 116.402344 116.082031 116.609375 116.054688 118.648438 C 131.34375 110.140625 147.679688 97.050781 158.125 78.902344 C 160.910156 74.0625 164.972656 64.042969 169.710938 63.613281 C 176.640625 62.980469 179.851562 71.257812 186.78125 72.171875 C 186.066406 69.632812 182.878906 69.566406 181.292969 67.894531 C 184.863281 67.585938 188.855469 72.128906 192.878906 73.398438 C 189.648438 69.097656 183.925781 67.292969 178.855469 64.835938 C 178.433594 66.480469 180.117188 66.019531 180.683594 66.671875 C 178.644531 67.675781 176.121094 63.925781 173.367188 63.613281 C 183.527344 60.550781 197.480469 61.242188 205.683594 65.445312 C 210.703125 75.964844 215.398438 85.457031 222.148438 93.578125 C 249.988281 127.085938 307.019531 131.046875 341.652344 157.785156 L 344.703125 157.785156 C 351.894531 164.636719 360.871094 169.703125 364.824219 179.800781 C 362.195312 179.378906 361.078125 177.441406 358.726562 176.742188 C 361.492188 180.957031 369.4375 182.351562 367.261719 189.585938 Z M 367.261719 189.585938 " fill-opacity="1" fill-rule="nonzero"/></g><path stroke-linecap="butt" transform="matrix(0, -0.749111, 0.749111, 0, 298.797334, 180.440874)" fill="none" stroke-linejoin="miter" d="M -0.000710792 0.49998 L 9.046468 0.49998 " stroke="#000000" stroke-width="1" stroke-opacity="1" stroke-miterlimit="4"/><path stroke-linecap="butt" transform="matrix(0, -0.749111, 0.749111, 0, 72.445987, 180.440596)" fill="none" stroke-linejoin="miter" d="M -0.00108199 0.499692 L 10.1255 0.499692 " stroke="#000000" stroke-width="1" stroke-opacity="1" stroke-miterlimit="4"/></svg>